# WaveFront *.obj file (generated by Autodesk ATF)

mtllib P6.mtl

g P6

v -21.656504 28.251163 0.000000
v -21.656504 18.251162 0.000000
v -21.851595 28.056072 0.019215
v -21.915323 23.251163 0.034074
v -22.039188 27.868479 0.076120
v -22.156504 23.251163 0.133975
v -22.212074 27.695593 0.168530
v -22.363611 23.251163 0.292893
v -22.363611 27.544056 0.292893
v -22.487974 27.419693 0.444430
v -22.522530 23.251163 0.500000
v -22.580383 27.327284 0.617317
v -22.622431 23.251163 0.741181
v -22.637289 27.270378 0.804910
v -22.651690 27.255978 0.901983
v -22.651690 19.246347 0.901983
v -22.656504 27.251163 1.000000
v -22.656504 19.251162 1.000000
v -21.851595 18.446253 0.019215
v -22.039188 18.633846 0.076120
v -22.212074 18.806732 0.168530
v -22.363611 18.958269 0.292893
v -22.487974 19.082632 0.444430
v -22.580383 19.175041 0.617317
v -22.637289 19.231947 0.804910
v -31.656504 18.251162 0.000000
v -26.656504 18.509981 0.034074
v -26.656504 18.751163 0.133975
v -26.656504 18.958269 0.292893
v -26.656504 19.117188 0.500000
v -26.656504 19.217089 0.741181
v -30.661320 19.246347 0.901983
v -30.656504 19.251162 1.000000
v -31.461414 18.446253 0.019215
v -31.273821 18.633846 0.076120
v -31.100935 18.806732 0.168530
v -30.949398 18.958269 0.292893
v -30.825035 19.082632 0.444430
v -30.732626 19.175041 0.617317
v -30.675720 19.231947 0.804910
v -30.656504 27.251163 1.000000
v -30.661320 27.255978 0.901983
v -26.656504 27.285236 0.741181
v -30.675720 27.270378 0.804910
v -30.732626 27.327284 0.617317
v -26.656504 27.385138 0.500000
v -30.825035 27.419693 0.444430
v -26.656504 27.544056 0.292893
v -30.949398 27.544056 0.292893
v -31.100935 27.695593 0.168530
v -26.656504 27.751163 0.133975
v -31.273821 27.868479 0.076120
v -26.656504 27.992344 0.034074
v -31.461414 28.056072 0.019215
v -31.656504 28.251163 0.000000
v -31.397686 23.251163 0.034074
v -31.156504 23.251163 0.133975
v -30.949398 23.251163 0.292893
v -30.790480 23.251163 0.500000
v -30.690578 23.251163 0.741181
v 22.236069 17.763933 0.000000
v -11.500000 10.000000 0.000000
v -20.236069 17.763933 0.000000
v -12.085271 9.942356 0.000000
v -12.648050 9.771639 0.000000
v 22.236069 27.236069 0.000000
v 31.750004 14.750000 0.000000
v 23.648050 9.771639 0.000000
v 23.085272 9.942356 0.000000
v 31.750004 43.000000 0.000000
v -20.236069 27.236069 0.000000
v -31.750000 14.750000 0.000000
v -14.271639 8.148050 0.000000
v -14.442356 7.585271 0.000000
v -16.626112 0.388229 0.000000
v -14.500000 7.000000 0.000000
v -16.575001 0.000000 0.000000
v -14.500000 -7.000000 0.000000
v -16.626112 -0.388229 0.000000
v -16.775963 -0.750000 0.000000
v -17.014339 -1.060660 0.000000
v -17.325001 -1.299038 0.000000
v -17.686771 -1.448889 0.000000
v -18.075001 -1.500000 0.000000
v -18.463228 -1.448889 0.000000
v -18.825001 -1.299038 0.000000
v -14.442356 -7.585271 0.000000
v -37.750000 -14.750000 0.000000
v -34.750000 -17.750000 0.000000
v -37.692356 -15.335271 0.000000
v -37.521637 -15.898050 0.000000
v -37.244408 -16.416710 0.000000
v -36.871319 -16.871321 0.000000
v -36.416710 -17.244410 0.000000
v -35.898048 -17.521639 0.000000
v -35.335270 -17.692356 0.000000
v -16.775963 0.750000 0.000000
v -17.014339 1.060660 0.000000
v -17.325001 1.299038 0.000000
v -17.686771 1.448889 0.000000
v -18.075001 1.500000 0.000000
v -18.463228 1.448889 0.000000
v -18.825001 1.299038 0.000000
v -19.135660 1.060660 0.000000
v -19.374039 0.750000 0.000000
v -19.523890 0.388229 0.000000
v -37.750000 14.750000 0.000000
v -19.575001 0.000000 0.000000
v -19.523890 -0.388229 0.000000
v -19.374039 -0.750000 0.000000
v -19.135660 -1.060660 0.000000
v 30.523890 0.388229 0.000000
v 37.750000 14.750000 0.000000
v 30.575001 0.000000 0.000000
v 37.750000 -14.750000 0.000000
v 30.523890 -0.388229 0.000000
v 30.374039 -0.750000 0.000000
v 30.135660 -1.060660 0.000000
v 29.825001 -1.299038 0.000000
v 25.500000 -7.000000 0.000000
v 29.463228 -1.448889 0.000000
v 29.075001 -1.500000 0.000000
v 28.686771 -1.448889 0.000000
v 28.325001 -1.299038 0.000000
v 28.014339 -1.060660 0.000000
v 27.775963 -0.750000 0.000000
v 27.626112 -0.388229 0.000000
v 27.575001 0.000000 0.000000
v 25.500000 7.000000 0.000000
v 27.626112 0.388229 0.000000
v 27.775963 0.750000 0.000000
v 28.014339 1.060660 0.000000
v 28.325001 1.299038 0.000000
v 28.686771 1.448889 0.000000
v 29.075001 1.500000 0.000000
v 29.463228 1.448889 0.000000
v 29.825001 1.299038 0.000000
v 37.684444 15.373735 0.000000
v 31.815557 15.373735 0.000000
v 37.490635 15.970210 0.000000
v 32.009365 15.970210 0.000000
v 37.177052 16.513355 0.000000
v 32.322948 16.513355 0.000000
v 36.757393 16.979435 0.000000
v 32.742607 16.979435 0.000000
v 36.250000 17.348076 0.000000
v 33.250000 17.348076 0.000000
v 35.677052 17.603170 0.000000
v 33.822948 17.603170 0.000000
v 35.063587 17.733566 0.000000
v 34.436413 17.733566 0.000000
v 30.374039 0.750000 0.000000
v 30.135660 1.060660 0.000000
v -14.271639 -8.148050 0.000000
v -13.994409 -8.666711 0.000000
v -13.621321 -9.121321 0.000000
v -13.166711 -9.494409 0.000000
v -12.648050 -9.771639 0.000000
v -12.085271 -9.942356 0.000000
v -11.500000 -10.000000 0.000000
v 34.750000 -17.750000 0.000000
v 22.500000 -10.000000 0.000000
v 23.085272 -9.942356 0.000000
v 23.648050 -9.771639 0.000000
v 24.166710 -9.494409 0.000000
v 24.621321 -9.121321 0.000000
v 24.994410 -8.666711 0.000000
v 25.271639 -8.148050 0.000000
v 25.442356 -7.585271 0.000000
v 25.442356 7.585271 0.000000
v 25.271639 8.148050 0.000000
v 24.994410 8.666711 0.000000
v 24.621321 9.121321 0.000000
v 24.166710 9.494409 0.000000
v 22.500000 10.000000 0.000000
v -13.166711 9.494409 0.000000
v -13.621321 9.121321 0.000000
v -13.994409 8.666711 0.000000
v -31.750000 43.000000 0.000000
v 37.692356 -15.335271 0.000000
v 37.521637 -15.898050 0.000000
v 37.244408 -16.416710 0.000000
v 36.871319 -16.871321 0.000000
v 36.416710 -17.244410 0.000000
v 35.898048 -17.521639 0.000000
v 35.335270 -17.692356 0.000000
v -31.815557 15.373735 0.000000
v -37.684444 15.373735 0.000000
v -32.009365 15.970210 0.000000
v -37.490635 15.970210 0.000000
v -32.322948 16.513355 0.000000
v -37.177052 16.513355 0.000000
v -32.742607 16.979435 0.000000
v -36.757393 16.979435 0.000000
v -33.250000 17.348076 0.000000
v -36.250000 17.348076 0.000000
v -33.822948 17.603170 0.000000
v -35.677052 17.603170 0.000000
v -34.436413 17.733566 0.000000
v -35.063587 17.733566 0.000000
v -34.750000 43.000000 3.000000
v -34.750000 43.000000 20.500000
v -33.000000 43.000000 22.000000
v -34.692356 43.000000 21.085272
v -34.521637 43.000000 21.648050
v -34.244408 43.000000 22.166710
v -33.871319 43.000000 22.621321
v -33.416710 43.000000 22.994410
v -32.898048 43.000000 23.271639
v -31.750000 43.000000 23.500000
v 33.000000 43.000000 22.000000
v 31.750004 43.000000 23.500000
v 32.898052 43.000000 23.271639
v 32.335274 43.000000 23.442356
v -32.335270 43.000000 23.442356
v 33.416714 43.000000 22.994410
v 33.871323 43.000000 22.621321
v 34.244411 43.000000 22.166710
v 34.521641 43.000000 21.648050
v 34.692360 43.000000 21.085272
v 34.750004 43.000000 20.500000
v 34.750004 43.000000 3.000000
v 33.000000 43.000000 1.000000
v 34.692360 43.000000 2.414729
v 34.521641 43.000000 1.851950
v 34.244411 43.000000 1.333289
v 33.871323 43.000000 0.878680
v 33.416714 43.000000 0.505591
v 32.898052 43.000000 0.228361
v 32.335274 43.000000 0.057644
v -33.000000 43.000000 1.000000
v -32.335270 43.000000 0.057644
v -32.898048 43.000000 0.228361
v -33.416710 43.000000 0.505591
v -33.871319 43.000000 0.878680
v -34.244408 43.000000 1.333289
v -34.521637 43.000000 1.851950
v -34.692356 43.000000 2.414729
v -40.301113 -5.138228 23.500000
v -37.750000 -9.000000 23.500000
v -40.250000 -4.750000 23.500000
v -35.500000 -10.000000 23.500000
v -40.301113 -4.361772 23.500000
v -40.450962 -4.000000 23.500000
v -40.450962 4.000000 23.500000
v -40.689339 3.689340 23.500000
v -40.450962 -5.500000 23.500000
v -40.689339 -5.810660 23.500000
v -41.000000 -6.049038 23.500000
v -41.361771 -6.198889 23.500000
v -43.750000 -9.000000 23.500000
v -41.750000 -6.250000 23.500000
v -42.138229 -6.198889 23.500000
v -44.750000 -8.000000 23.500000
v -42.500000 -6.049038 23.500000
v -42.810661 -5.810660 23.500000
v -43.049038 -5.500000 23.500000
v -43.198887 -5.138228 23.500000
v -43.250000 -4.750000 23.500000
v -43.198887 -4.361772 23.500000
v -44.750000 8.000000 23.500000
v -43.198887 4.361772 23.500000
v -43.250000 4.750000 23.500000
v -43.049038 4.000000 23.500000
v -43.049038 -4.000000 23.500000
v -42.810661 -3.689340 23.500000
v -42.810661 3.689340 23.500000
v -42.500000 -3.450962 23.500000
v -42.500000 3.450962 23.500000
v -42.138229 -3.301111 23.500000
v -42.138229 3.301111 23.500000
v -41.750000 -3.250000 23.500000
v -41.750000 3.250000 23.500000
v -41.361771 3.301111 23.500000
v -41.361771 -3.301111 23.500000
v -41.000000 3.450962 23.500000
v -41.000000 -3.450962 23.500000
v -40.689339 -3.689340 23.500000
v -40.301113 4.361772 23.500000
v -35.500000 10.000000 23.500000
v -40.250000 4.750000 23.500000
v -37.750000 9.000000 23.500000
v -40.301113 5.138228 23.500000
v -40.450962 5.500000 23.500000
v -40.689339 5.810660 23.500000
v -41.000000 6.049038 23.500000
v -41.361771 6.198889 23.500000
v -43.750000 9.000000 23.500000
v -41.750000 6.250000 23.500000
v -42.138229 6.198889 23.500000
v -42.500000 6.049038 23.500000
v -42.810661 5.810660 23.500000
v -43.049038 5.500000 23.500000
v -43.198887 5.138228 23.500000
v 43.198887 -4.361772 23.500000
v 43.250000 -4.750000 23.500000
v 44.750000 -8.000000 23.500000
v 43.198887 -5.138228 23.500000
v 43.049038 -5.500000 23.500000
v 42.810661 -5.810660 23.500000
v 42.500000 -6.049038 23.500000
v 42.138229 -6.198889 23.500000
v 43.750000 -9.000000 23.500000
v 41.750000 -6.250000 23.500000
v 41.361771 -6.198889 23.500000
v 37.750000 -9.000000 23.500000
v 41.000000 -6.049038 23.500000
v 40.689339 -5.810660 23.500000
v 40.450962 -5.500000 23.500000
v 40.301113 -5.138228 23.500000
v 40.250000 -4.750000 23.500000
v 35.500000 -10.000000 23.500000
v 40.301113 -4.361772 23.500000
v 40.450962 -4.000000 23.500000
v 40.689339 -3.689340 23.500000
v 40.689339 3.689340 23.500000
v 40.450962 4.000000 23.500000
v 35.500000 10.000000 23.500000
v 40.301113 4.361772 23.500000
v 40.250000 4.750000 23.500000
v 41.000000 -3.450962 23.500000
v 41.000000 3.450962 23.500000
v 41.361771 -3.301111 23.500000
v 41.361771 3.301111 23.500000
v 41.750000 -3.250000 23.500000
v 41.750000 3.250000 23.500000
v 42.138229 3.301111 23.500000
v 42.138229 -3.301111 23.500000
v 42.500000 3.450962 23.500000
v 42.500000 -3.450962 23.500000
v 42.810661 3.689340 23.500000
v 42.810661 -3.689340 23.500000
v 43.049038 4.000000 23.500000
v 43.049038 -4.000000 23.500000
v 43.198887 5.138228 23.500000
v 43.250000 4.750000 23.500000
v 44.750000 8.000000 23.500000
v 43.198887 4.361772 23.500000
v 37.750000 9.000000 23.500000
v 40.301113 5.138228 23.500000
v 40.450962 5.500000 23.500000
v 40.689339 5.810660 23.500000
v 41.000000 6.049038 23.500000
v 41.361771 6.198889 23.500000
v 43.750000 9.000000 23.500000
v 41.750000 6.250000 23.500000
v 42.138229 6.198889 23.500000
v 42.500000 6.049038 23.500000
v 42.810661 5.810660 23.500000
v 43.049038 5.500000 23.500000
v 21.603228 15.537392 23.500000
v 20.000000 15.500000 23.500000
v -20.000000 15.500000 23.500000
v -21.603228 15.537392 23.500000
v -23.138552 15.533993 23.500000
v -24.603977 15.488605 23.500000
v -25.996206 15.399246 23.500000
v -27.310783 15.263241 23.500000
v -28.542358 15.077374 23.500000
v -31.750000 14.750000 23.500000
v -29.685076 14.838130 23.500000
v -30.733107 14.542006 23.500000
v -31.681383 14.185957 23.500000
v -32.526501 13.767939 23.500000
v -31.815557 15.373735 23.500000
v -37.684444 15.373735 23.500000
v -37.490635 15.970210 23.500000
v -32.009365 15.970210 23.500000
v -37.177052 16.513355 23.500000
v -32.322948 16.513355 23.500000
v -36.757393 16.979435 23.500000
v -32.742607 16.979435 23.500000
v -36.250000 17.348076 23.500000
v -33.250000 17.348076 23.500000
v -35.677052 17.603170 23.500000
v -33.822948 17.603170 23.500000
v -35.063587 17.733566 23.500000
v -34.436413 17.733566 23.500000
v 23.138552 15.533993 23.500000
v 24.603977 15.488605 23.500000
v 25.996206 15.399246 23.500000
v 27.310783 15.263241 23.500000
v 28.542358 15.077374 23.500000
v 31.750004 14.750000 23.500000
v 29.685076 14.838130 23.500000
v 30.733107 14.542006 23.500000
v 31.681383 14.185957 23.500000
v 32.526501 13.767939 23.500000
v 31.815557 15.373735 23.500000
v 37.684444 15.373735 23.500000
v 32.009365 15.970210 23.500000
v 37.490635 15.970210 23.500000
v 32.322948 16.513355 23.500000
v 37.177052 16.513355 23.500000
v 32.742607 16.979435 23.500000
v 36.757393 16.979435 23.500000
v 33.250000 17.348076 23.500000
v 36.250000 17.348076 23.500000
v 33.822948 17.603170 23.500000
v 35.677052 17.603170 23.500000
v 34.436413 17.733566 23.500000
v 35.063587 17.733566 23.500000
v 37.750000 14.750000 23.500000
v 33.267597 13.287434 23.500000
v 33.906307 12.745422 23.500000
v 34.445671 12.143731 23.500000
v 34.889145 11.484440 23.500000
v 35.239864 10.769426 23.500000
v 35.239864 -10.769426 23.500000
v 37.750000 -14.750000 23.500000
v 34.889145 -11.484440 23.500000
v 34.445671 -12.143731 23.500000
v 33.906307 -12.745422 23.500000
v 33.267597 -13.287434 23.500000
v 32.526501 -13.767939 23.500000
v 31.681383 -14.185957 23.500000
v 34.750000 -17.750000 23.500000
v 36.871319 -16.871321 23.500000
v 37.244408 -16.416710 23.500000
v 30.733107 -14.542006 23.500000
v 29.685076 -14.838130 23.500000
v 28.542358 -15.077374 23.500000
v 27.310783 -15.263241 23.500000
v 25.996206 -15.399246 23.500000
v 24.603977 -15.488605 23.500000
v 23.138552 -15.533993 23.500000
v 21.603228 -15.537392 23.500000
v 20.000000 -15.500000 23.500000
v -20.000000 -15.500000 23.500000
v -34.750000 -17.750000 23.500000
v -21.603228 -15.537392 23.500000
v -23.138552 -15.533993 23.500000
v -24.603977 -15.488605 23.500000
v -25.996206 -15.399246 23.500000
v -27.310783 -15.263241 23.500000
v -28.542358 -15.077374 23.500000
v -29.685076 -14.838130 23.500000
v -30.733107 -14.542006 23.500000
v -31.681383 -14.185957 23.500000
v -32.526501 -13.767939 23.500000
v -36.871319 -16.871321 23.500000
v -37.244408 -16.416710 23.500000
v -37.521637 -15.898050 23.500000
v -37.692356 -15.335271 23.500000
v -37.750000 -14.750000 23.500000
v -33.267597 -13.287434 23.500000
v -33.906307 -12.745422 23.500000
v -34.445671 -12.143731 23.500000
v -34.889145 -11.484440 23.500000
v -35.239864 -10.769426 23.500000
v -35.239864 10.769426 23.500000
v -37.750000 14.750000 23.500000
v -34.889145 11.484440 23.500000
v -34.445671 12.143731 23.500000
v -33.906307 12.745422 23.500000
v -33.267597 13.287434 23.500000
v -44.008820 8.965926 23.500000
v -44.250000 8.866025 23.500000
v -44.457108 8.707107 23.500000
v -44.616024 8.500000 23.500000
v -44.715927 8.258819 23.500000
v -44.715927 -8.258819 23.500000
v -44.616024 -8.500000 23.500000
v -44.457108 -8.707107 23.500000
v -44.250000 -8.866025 23.500000
v -44.008820 -8.965926 23.500000
v -36.416710 -17.244410 23.500000
v -35.898048 -17.521639 23.500000
v -35.335270 -17.692356 23.500000
v 35.335270 -17.692356 23.500000
v 35.898048 -17.521639 23.500000
v 36.416710 -17.244410 23.500000
v 37.521637 -15.898050 23.500000
v 37.692356 -15.335271 23.500000
v 44.008820 -8.965926 23.500000
v 44.250000 -8.866025 23.500000
v 44.457108 -8.707107 23.500000
v 44.616024 -8.500000 23.500000
v 44.715927 -8.258819 23.500000
v 44.715927 8.258819 23.500000
v 44.616024 8.500000 23.500000
v 44.457108 8.707107 23.500000
v 44.250000 8.866025 23.500000
v 44.008820 8.965926 23.500000
v -32.335270 33.583332 23.442356
v -31.776165 15.139372 23.500555
v -32.898048 33.583332 23.271639
v -33.416710 33.583332 22.994410
v -33.871319 33.583332 22.621321
v -34.244408 33.583332 22.166710
v -34.521637 33.583332 21.648050
v -34.692356 33.583332 21.085272
v -34.750000 17.750000 20.500000
v -34.692356 24.166666 21.085272
v -34.521637 24.166666 21.648050
v -34.244408 24.166666 22.166710
v -33.871319 24.166666 22.621321
v -33.416710 24.166666 22.994410
v -32.898048 24.166666 23.271639
v -32.335270 24.166666 23.442356
v -31.854021 15.528826 23.499157
v -31.982615 15.907537 23.491213
v -32.160652 16.264912 23.471767
v -32.382442 16.592432 23.432579
v -32.639641 16.882111 23.365007
v -32.921352 17.128244 23.261871
v -33.229252 17.335707 23.109766
v -33.549126 17.499071 22.900406
v -33.844700 17.610138 22.647587
v -34.101700 17.678972 22.361631
v -34.327614 17.719980 22.033455
v -34.511578 17.740511 21.672031
v -34.644203 17.748569 21.287222
v -34.723591 17.750340 20.891960
v -34.750000 17.750000 3.000000
v -34.692356 33.583332 2.414729
v -34.692356 24.166666 2.414729
v -34.723591 17.750340 2.608040
v -34.644203 17.748569 2.212778
v -34.521637 24.166666 1.851950
v -34.511578 17.740511 1.827969
v -34.327614 17.719980 1.466544
v -34.244408 24.166666 1.333289
v -34.101700 17.678972 1.138369
v -33.871319 24.166666 0.878680
v -33.844700 17.610138 0.852412
v -33.549126 17.499071 0.599594
v -33.416710 24.166666 0.505591
v -33.229252 17.335707 0.390234
v -32.898048 24.166666 0.228361
v -32.921352 17.128244 0.238129
v -32.639641 16.882111 0.134992
v -32.335270 24.166666 0.057644
v -32.382442 16.592432 0.067420
v -32.160652 16.264912 0.028233
v -31.982615 15.907537 0.008788
v -32.335270 33.583332 0.057644
v -32.898048 33.583332 0.228361
v -33.416710 33.583332 0.505591
v -33.871319 33.583332 0.878680
v -34.244408 33.583332 1.333289
v -34.521637 33.583332 1.851950
v -31.854021 15.528826 0.000843
v -31.776165 15.139372 -0.000555
v 33.000000 17.750000 22.000000
v 33.000000 17.750000 1.000000
v -33.000000 17.750000 1.000000
v 20.000000 20.000000 1.000000
v 20.000000 25.000000 1.000000
v -18.000000 25.000000 1.000000
v -18.000000 20.000000 1.000000
v 1.000000 18.390097 0.066074
v 11.618034 18.390097 0.066074
v 21.609905 18.390097 0.066074
v 21.011324 18.988678 0.261387
v 11.618034 18.988678 0.261387
v 20.730696 19.269304 0.405033
v 11.618034 19.533308 0.577335
v 20.466692 19.533308 0.577335
v 20.222227 19.777775 0.776390
v 1.000000 19.533308 0.577335
v -18.222227 19.777775 0.776390
v -9.618034 19.533308 0.577335
v -18.466692 19.533308 0.577335
v -18.730696 19.269304 0.405033
v -9.618034 18.988678 0.261387
v -19.011324 18.988678 0.261387
v -9.618034 18.390097 0.066074
v -19.609905 18.390097 0.066074
v 1.000000 18.988678 0.261387
v -19.609905 26.609905 0.066074
v -19.011324 26.011324 0.261387
v -18.730696 25.730696 0.405033
v -18.466692 25.466692 0.577335
v -18.222227 25.222227 0.776390
v 1.000000 26.609905 0.066074
v -9.618034 26.609905 0.066074
v -9.618034 26.011324 0.261387
v -9.618034 25.466692 0.577335
v 1.000000 25.466692 0.577335
v 20.222227 25.222227 0.776390
v 11.618034 25.466692 0.577335
v 20.466692 25.466692 0.577335
v 20.730696 25.730696 0.405033
v 11.618034 26.011324 0.261387
v 21.011324 26.011324 0.261387
v 11.618034 26.609905 0.066074
v 21.609905 26.609905 0.066074
v 1.000000 26.011324 0.261387
v 32.335274 33.583332 0.057644
v 31.776165 15.139372 -0.000555
v 32.898052 33.583332 0.228361
v 33.416714 33.583332 0.505591
v 33.871323 33.583332 0.878680
v 34.244411 33.583332 1.333289
v 34.521641 33.583332 1.851950
v 34.692360 33.583332 2.414729
v 34.750000 17.750000 3.000000
v 34.692360 24.166666 2.414729
v 34.521641 24.166666 1.851950
v 34.244411 24.166666 1.333289
v 33.871323 24.166666 0.878680
v 33.416714 24.166666 0.505591
v 32.898052 24.166666 0.228361
v 32.335274 24.166666 0.057644
v 31.854021 15.528826 0.000843
v 31.982615 15.907538 0.008788
v 32.160652 16.264912 0.028233
v 32.382442 16.592432 0.067420
v 32.639645 16.882113 0.134991
v 32.921356 17.128246 0.238128
v 33.229252 17.335707 0.390233
v 33.549126 17.499071 0.599593
v 33.844700 17.610140 0.852411
v 34.101704 17.678972 1.138368
v 34.327614 17.719980 1.466544
v 34.511581 17.740511 1.827968
v 34.644207 17.748569 2.212778
v 34.723595 17.750340 2.608040
v 34.750000 17.750000 20.500000
v 34.692360 33.583332 21.085272
v 34.692360 24.166666 21.085272
v 34.723595 17.750340 20.891960
v 34.644207 17.748569 21.287222
v 34.521641 24.166666 21.648050
v 34.511581 17.740511 21.672031
v 34.327614 17.719980 22.033457
v 34.244411 24.166666 22.166710
v 34.101704 17.678972 22.361631
v 33.871323 24.166666 22.621321
v 33.844700 17.610140 22.647589
v 33.549126 17.499071 22.900406
v 33.416714 24.166666 22.994410
v 33.229252 17.335707 23.109768
v 32.898052 24.166666 23.271639
v 32.921356 17.128246 23.261871
v 32.639645 16.882113 23.365009
v 32.335274 24.166666 23.442356
v 32.382442 16.592432 23.432581
v 32.160652 16.264912 23.471767
v 31.982615 15.907538 23.491213
v 32.335274 33.583332 23.442356
v 32.898052 33.583332 23.271639
v 33.416714 33.583332 22.994410
v 33.871323 33.583332 22.621321
v 34.244411 33.583332 22.166710
v 34.521641 33.583332 21.648050
v 31.854021 15.528826 23.499157
v 31.776165 15.139372 23.500555
v -33.000000 17.750000 22.000000
v -40.301113 -5.138228 21.000000
v -40.250000 -4.750000 21.000000
v -40.301113 -4.361772 21.000000
v -40.450962 -4.000000 21.000000
v -40.689339 -3.689340 21.000000
v -41.000000 -3.450962 21.000000
v -41.361771 -3.301111 21.000000
v -41.750000 -3.250000 21.000000
v -42.138229 -3.301111 21.000000
v -42.500000 -3.450962 21.000000
v -42.810661 -3.689340 21.000000
v -43.049038 -4.000000 21.000000
v -43.198887 -4.361772 21.000000
v -43.250000 -4.750000 21.000000
v -43.198887 -5.138228 21.000000
v -43.049038 -5.500000 21.000000
v -42.810661 -5.810660 21.000000
v -42.500000 -6.049038 21.000000
v -42.138229 -6.198889 21.000000
v -41.750000 -6.250000 21.000000
v -41.361771 -6.198889 21.000000
v -41.000000 -6.049038 21.000000
v -40.689339 -5.810660 21.000000
v -40.450962 -5.500000 21.000000
v -40.301113 4.361772 21.000000
v -40.250000 4.750000 21.000000
v -40.301113 5.138228 21.000000
v -40.450962 5.500000 21.000000
v -40.689339 5.810660 21.000000
v -41.000000 6.049038 21.000000
v -41.361771 6.198889 21.000000
v -41.750000 6.250000 21.000000
v -42.138229 6.198889 21.000000
v -42.500000 6.049038 21.000000
v -42.810661 5.810660 21.000000
v -43.049038 5.500000 21.000000
v -43.198887 5.138228 21.000000
v -43.250000 4.750000 21.000000
v -43.198887 4.361772 21.000000
v -43.049038 4.000000 21.000000
v -42.810661 3.689340 21.000000
v -42.500000 3.450962 21.000000
v -42.138229 3.301111 21.000000
v -41.750000 3.250000 21.000000
v -41.361771 3.301111 21.000000
v -41.000000 3.450962 21.000000
v -40.689339 3.689340 21.000000
v -40.450962 4.000000 21.000000
v 43.198887 -5.138228 21.000000
v 43.250000 -4.750000 21.000000
v 43.198887 -4.361772 21.000000
v 43.049038 -4.000000 21.000000
v 42.810661 -3.689340 21.000000
v 42.500000 -3.450962 21.000000
v 42.138229 -3.301111 21.000000
v 41.750000 -3.250000 21.000000
v 41.361771 -3.301111 21.000000
v 41.000000 -3.450962 21.000000
v 40.689339 -3.689340 21.000000
v 40.450962 -4.000000 21.000000
v 40.301113 -4.361772 21.000000
v 40.250000 -4.750000 21.000000
v 40.301113 -5.138228 21.000000
v 40.450962 -5.500000 21.000000
v 40.689339 -5.810660 21.000000
v 41.000000 -6.049038 21.000000
v 41.361771 -6.198889 21.000000
v 41.750000 -6.250000 21.000000
v 42.138229 -6.198889 21.000000
v 42.500000 -6.049038 21.000000
v 42.810661 -5.810660 21.000000
v 43.049038 -5.500000 21.000000
v 43.198887 4.361772 21.000000
v 43.250000 4.750000 21.000000
v 43.198887 5.138228 21.000000
v 43.049038 5.500000 21.000000
v 42.810661 5.810660 21.000000
v 42.500000 6.049038 21.000000
v 42.138229 6.198889 21.000000
v 41.750000 6.250000 21.000000
v 41.361771 6.198889 21.000000
v 41.000000 6.049038 21.000000
v 40.689339 5.810660 21.000000
v 40.450962 5.500000 21.000000
v 40.301113 5.138228 21.000000
v 40.250000 4.750000 21.000000
v 40.301113 4.361772 21.000000
v 40.450962 4.000000 21.000000
v 40.689339 3.689340 21.000000
v 41.000000 3.450962 21.000000
v 41.361771 3.301111 21.000000
v 41.750000 3.250000 21.000000
v 42.138229 3.301111 21.000000
v 42.500000 3.450962 21.000000
v 42.810661 3.689340 21.000000
v 43.049038 4.000000 21.000000
v -44.750000 -8.000000 21.000000
v -44.715927 -8.258819 21.000000
v -44.616024 -8.500000 21.000000
v -44.457108 -8.707107 21.000000
v -44.250000 -8.866025 21.000000
v -44.008820 -8.965926 21.000000
v -43.750000 -9.000000 21.000000
v -44.750000 8.000000 21.000000
v -43.750000 9.000000 21.000000
v -44.008820 8.965926 21.000000
v -44.250000 8.866025 21.000000
v -44.457108 8.707107 21.000000
v -44.616024 8.500000 21.000000
v -44.715927 8.258819 21.000000
v -37.750000 9.000000 21.000000
v 44.750000 8.000000 21.000000
v 44.715927 8.258819 21.000000
v 44.616024 8.500000 21.000000
v 44.457108 8.707107 21.000000
v 44.250000 8.866025 21.000000
v 44.008820 8.965926 21.000000
v 43.750000 9.000000 21.000000
v 44.750000 -8.000000 21.000000
v 43.750000 -9.000000 21.000000
v 44.008820 -8.965926 21.000000
v 44.250000 -8.866025 21.000000
v 44.457108 -8.707107 21.000000
v 44.616024 -8.500000 21.000000
v 44.715927 -8.258819 21.000000
v -37.750000 -9.000000 21.000000
v 37.750000 -9.000000 21.000000
v 37.750000 9.000000 21.000000
v 25.500000 7.000000 2.250000
v 25.442356 7.585271 2.250000
v 25.271639 8.148050 2.250000
v 24.994410 8.666711 2.250000
v 24.621321 9.121321 2.250000
v 24.166710 9.494409 2.250000
v 23.648050 9.771639 2.250000
v 23.085272 9.942356 2.250000
v 22.500000 10.000000 2.250000
v -11.500000 10.000000 2.250000
v -12.085271 9.942356 2.250000
v -12.648050 9.771639 2.250000
v -13.166711 9.494409 2.250000
v -13.621321 9.121321 2.250000
v -13.994409 8.666711 2.250000
v -14.271639 8.148050 2.250000
v -14.442356 7.585271 2.250000
v -14.500000 7.000000 2.250000
v -14.500000 -7.000000 2.250000
v -14.442356 -7.585271 2.250000
v -14.271639 -8.148050 2.250000
v -13.994409 -8.666711 2.250000
v -13.621321 -9.121321 2.250000
v -13.166711 -9.494409 2.250000
v -12.648050 -9.771639 2.250000
v -12.085271 -9.942356 2.250000
v -11.500000 -10.000000 2.250000
v 22.500000 -10.000000 2.250000
v 23.085272 -9.942356 2.250000
v 23.648050 -9.771639 2.250000
v 24.166710 -9.494409 2.250000
v 24.621321 -9.121321 2.250000
v 24.994410 -8.666711 2.250000
v 25.271639 -8.148050 2.250000
v 25.442356 -7.585271 2.250000
v 25.500000 -7.000000 2.250000
v -16.626112 -0.388229 2.250000
v -16.575001 0.000000 2.250000
v -16.626112 0.388229 2.250000
v -16.775963 0.750000 2.250000
v -17.014339 1.060660 2.250000
v -17.325001 1.299038 2.250000
v -17.686771 1.448889 2.250000
v -18.075001 1.500000 2.250000
v -18.463228 1.448889 2.250000
v -18.825001 1.299038 2.250000
v -19.135660 1.060660 2.250000
v -19.374039 0.750000 2.250000
v -19.523890 0.388229 2.250000
v -19.575001 0.000000 2.250000
v -19.523890 -0.388229 2.250000
v -19.374039 -0.750000 2.250000
v -19.135660 -1.060660 2.250000
v -18.825001 -1.299038 2.250000
v -18.463228 -1.448889 2.250000
v -18.075001 -1.500000 2.250000
v -17.686771 -1.448889 2.250000
v -17.325001 -1.299038 2.250000
v -17.014339 -1.060660 2.250000
v -16.775963 -0.750000 2.250000
v 30.523890 -0.388229 2.250000
v 30.575001 0.000000 2.250000
v 30.523890 0.388229 2.250000
v 30.374039 0.750000 2.250000
v 30.135660 1.060660 2.250000
v 29.825001 1.299038 2.250000
v 29.463228 1.448889 2.250000
v 29.075001 1.500000 2.250000
v 28.686771 1.448889 2.250000
v 28.325001 1.299038 2.250000
v 28.014339 1.060660 2.250000
v 27.775963 0.750000 2.250000
v 27.626112 0.388229 2.250000
v 27.575001 0.000000 2.250000
v 27.626112 -0.388229 2.250000
v 27.775963 -0.750000 2.250000
v 28.014339 -1.060660 2.250000
v 28.325001 -1.299038 2.250000
v 28.686771 -1.448889 2.250000
v 29.075001 -1.500000 2.250000
v 29.463228 -1.448889 2.250000
v 29.825001 -1.299038 2.250000
v 30.135660 -1.060660 2.250000
v 30.374039 -0.750000 2.250000
v 37.692356 -15.335271 11.750000
v 37.521637 -15.898050 11.750000
v 37.244408 -16.416710 11.750000
v 36.871319 -16.871321 11.750000
v 36.416710 -17.244410 11.750000
v 35.898048 -17.521639 11.750000
v 35.335270 -17.692356 11.750000
v 35.063587 17.733566 11.750000
v 35.677052 17.603170 11.750000
v 36.250000 17.348076 11.750000
v 36.757393 16.979435 11.750000
v 37.177052 16.513355 11.750000
v 37.490635 15.970210 11.750000
v 37.684444 15.373735 11.750000
v -35.335270 -17.692356 11.750000
v -35.898048 -17.521639 11.750000
v -36.416710 -17.244410 11.750000
v -36.871319 -16.871321 11.750000
v -37.244408 -16.416710 11.750000
v -37.521637 -15.898050 11.750000
v -37.692356 -15.335271 11.750000
v -37.684444 15.373735 11.750000
v -37.490635 15.970210 11.750000
v -37.177052 16.513355 11.750000
v -36.757393 16.979435 11.750000
v -36.250000 17.348076 11.750000
v -35.677052 17.603170 11.750000
v -35.063587 17.733566 11.750000
v 24.344324 15.500000 21.250000
v 35.500000 15.500000 21.250000
v 25.507830 15.436350 21.250000
v 26.619814 15.341751 21.250000
v 27.677481 15.214521 21.250000
v 28.677691 15.052777 21.250000
v 29.617136 14.854531 21.250000
v 30.492546 14.617817 21.250000
v 31.300972 14.340864 21.250000
v 32.040127 14.022300 21.250000
v 32.708752 13.661366 21.250000
v 33.306866 13.258076 21.250000
v 33.835575 12.813091 21.250000
v 34.296577 12.327436 21.250000
v 34.691822 11.802279 21.250000
v 35.023186 11.238746 21.250000
v 35.292229 10.637777 21.250000
v 35.500000 10.000000 21.250000
v 24.344324 -15.500000 21.250000
v 25.507830 -15.436350 21.250000
v 35.500000 -15.500000 21.250000
v 26.619814 -15.341751 21.250000
v 27.677481 -15.214521 21.250000
v 28.677691 -15.052777 21.250000
v 29.617136 -14.854531 21.250000
v 30.492546 -14.617817 21.250000
v 31.300972 -14.340864 21.250000
v 32.040127 -14.022300 21.250000
v 32.708752 -13.661366 21.250000
v 33.306866 -13.258076 21.250000
v 33.835575 -12.813091 21.250000
v 34.296577 -12.327436 21.250000
v 34.691822 -11.802279 21.250000
v 35.023186 -11.238746 21.250000
v 35.292229 -10.637777 21.250000
v 35.500000 -10.000000 21.250000
v -35.500000 -10.000000 21.250000
v -35.292229 -10.637777 21.250000
v -35.500000 -15.500000 21.250000
v -35.023186 -11.238746 21.250000
v -34.691822 -11.802279 21.250000
v -34.296577 -12.327436 21.250000
v -33.835575 -12.813091 21.250000
v -33.306866 -13.258076 21.250000
v -32.708752 -13.661366 21.250000
v -32.040127 -14.022300 21.250000
v -31.300972 -14.340864 21.250000
v -30.492546 -14.617817 21.250000
v -29.617136 -14.854531 21.250000
v -28.677691 -15.052777 21.250000
v -27.677481 -15.214521 21.250000
v -26.619814 -15.341751 21.250000
v -25.507830 -15.436350 21.250000
v -24.344324 -15.500000 21.250000
v -35.500000 10.000000 21.250000
v -35.500000 15.500000 21.250000
v -35.292233 10.637777 21.250000
v -35.023186 11.238746 21.250000
v -34.691822 11.802279 21.250000
v -34.296577 12.327436 21.250000
v -33.835575 12.813091 21.250000
v -33.306866 13.258076 21.250000
v -32.708752 13.661366 21.250000
v -32.040127 14.022300 21.250000
v -31.300972 14.340864 21.250000
v -30.492546 14.617817 21.250000
v -29.617136 14.854531 21.250000
v -28.677691 15.052777 21.250000
v -27.677481 15.214521 21.250000
v -26.619814 15.341751 21.250000
v -25.507828 15.436350 21.250000
v -24.344324 15.500000 21.250000
v -23.309778 15.530958 21.250000
v -22.240383 15.540981 21.250000
v -21.136959 15.530564 21.250000
v -20.000000 15.500000 21.250000
v -20.000000 -15.500000 21.250000
v -21.136961 -15.530564 21.250000
v -22.240383 -15.540981 21.250000
v -23.309778 -15.530958 21.250000
v 23.309778 -15.530958 21.250000
v 22.240383 -15.540981 21.250000
v 21.136961 -15.530564 21.250000
v 20.000000 -15.500000 21.250000
v 20.000000 15.500000 21.250000
v 21.136961 15.530564 21.250000
v 22.240383 15.540981 21.250000
v 23.309778 15.530958 21.250000
v 35.500000 15.500000 2.250000
v 35.500000 -15.500000 2.250000
v -35.500000 15.500000 2.250000
v -35.500000 -15.500000 2.250000
usemtl Steel_-_Satin
f 1 2 3
f 3 2 4
f 3 4 5
f 5 4 6
f 5 6 7
f 7 6 8
f 7 8 9
f 9 8 10
f 10 8 11
f 10 11 12
f 12 11 13
f 12 13 14
f 14 13 15
f 15 13 16
f 15 16 17
f 17 16 18
f 2 19 4
f 4 19 20
f 4 20 6
f 6 20 21
f 6 21 8
f 8 21 22
f 8 22 23
f 8 23 11
f 11 23 24
f 11 24 13
f 13 24 25
f 13 25 16
f 2 26 19
f 19 26 27
f 19 27 20
f 20 27 28
f 20 28 21
f 21 28 29
f 21 29 22
f 22 29 23
f 23 29 30
f 23 30 24
f 24 30 31
f 24 31 25
f 25 31 16
f 16 31 32
f 16 32 18
f 18 32 33
f 26 34 27
f 27 34 35
f 27 35 28
f 28 35 36
f 28 36 29
f 29 36 37
f 29 37 38
f 29 38 30
f 30 38 39
f 30 39 31
f 31 39 40
f 31 40 32
f 17 41 15
f 15 41 42
f 15 42 43
f 43 42 44
f 43 44 45
f 43 45 46
f 46 45 47
f 46 47 48
f 48 47 49
f 48 49 50
f 48 50 51
f 51 50 52
f 51 52 53
f 53 52 54
f 53 54 1
f 1 54 55
f 1 3 53
f 53 3 5
f 53 5 51
f 51 5 7
f 51 7 48
f 48 7 9
f 48 9 10
f 48 10 46
f 46 10 12
f 46 12 43
f 43 12 14
f 43 14 15
f 26 55 34
f 34 55 56
f 34 56 35
f 35 56 57
f 35 57 36
f 36 57 58
f 36 58 37
f 37 58 38
f 38 58 59
f 38 59 39
f 39 59 60
f 39 60 40
f 40 60 32
f 32 60 42
f 32 42 33
f 33 42 41
f 55 54 56
f 56 54 52
f 56 52 57
f 57 52 50
f 57 50 58
f 58 50 49
f 58 49 47
f 58 47 59
f 59 47 45
f 59 45 60
f 60 45 44
f 60 44 42
f 61 62 63
f 63 62 64
f 63 64 65
f 66 67 61
f 61 67 68
f 61 68 69
f 67 66 70
f 70 66 71
f 70 71 1
f 1 71 2
f 2 71 63
f 2 63 72
f 72 63 73
f 72 73 74
f 75 76 77
f 77 76 78
f 77 78 79
f 79 78 80
f 80 78 81
f 81 78 82
f 82 78 83
f 83 78 84
f 84 78 85
f 85 78 86
f 86 78 87
f 86 87 88
f 88 87 89
f 88 89 90
f 90 89 91
f 91 89 92
f 92 89 93
f 93 89 94
f 94 89 95
f 95 89 96
f 75 97 76
f 76 97 98
f 76 98 99
f 99 100 76
f 76 100 101
f 76 101 102
f 102 103 76
f 76 103 74
f 74 103 72
f 103 104 72
f 72 104 105
f 72 105 106
f 72 106 107
f 107 106 108
f 107 108 88
f 88 108 109
f 88 109 110
f 110 111 88
f 88 111 86
f 112 113 114
f 114 113 115
f 114 115 116
f 116 115 117
f 117 115 118
f 118 115 119
f 119 115 120
f 119 120 121
f 121 120 122
f 122 120 123
f 123 120 124
f 124 120 125
f 125 120 126
f 126 120 127
f 127 120 128
f 128 120 129
f 128 129 130
f 130 129 131
f 131 129 132
f 132 129 133
f 133 129 134
f 134 129 135
f 135 129 136
f 136 129 137
f 137 129 67
f 137 67 113
f 113 67 138
f 138 67 139
f 138 139 140
f 140 139 141
f 140 141 142
f 142 141 143
f 142 143 144
f 144 143 145
f 144 145 146
f 146 145 147
f 146 147 148
f 148 147 149
f 148 149 150
f 150 149 151
f 112 152 113
f 113 152 153
f 113 153 137
f 87 154 89
f 89 154 155
f 89 155 156
f 156 157 89
f 89 157 158
f 89 158 159
f 159 160 89
f 89 160 161
f 161 160 162
f 161 162 163
f 163 164 161
f 161 164 165
f 161 165 166
f 161 166 115
f 115 166 167
f 115 167 168
f 168 169 115
f 115 169 120
f 129 170 67
f 67 170 171
f 67 171 172
f 172 173 67
f 67 173 174
f 67 174 68
f 69 175 61
f 61 175 62
f 65 176 63
f 63 176 177
f 63 177 178
f 178 73 63
f 70 1 179
f 179 1 55
f 179 55 72
f 72 55 26
f 72 26 2
f 115 180 161
f 161 180 181
f 161 181 182
f 182 183 161
f 161 183 184
f 161 184 185
f 185 186 161
f 72 107 187
f 187 107 188
f 187 188 189
f 189 188 190
f 189 190 191
f 191 190 192
f 191 192 193
f 193 192 194
f 193 194 195
f 195 194 196
f 195 196 197
f 197 196 198
f 197 198 199
f 199 198 200
f 201 202 203
f 203 202 204
f 203 204 205
f 205 206 203
f 203 206 207
f 203 207 208
f 208 209 203
f 203 209 210
f 203 210 211
f 211 210 212
f 211 212 213
f 213 212 214
f 209 215 210
f 213 216 211
f 211 216 217
f 211 217 218
f 218 219 211
f 211 219 220
f 211 220 221
f 221 222 211
f 211 222 223
f 223 222 224
f 223 224 225
f 225 226 223
f 223 226 227
f 223 227 228
f 228 229 223
f 223 229 230
f 223 230 70
f 70 179 223
f 223 179 231
f 231 179 232
f 231 232 233
f 233 234 231
f 231 234 235
f 231 235 236
f 236 237 231
f 231 237 238
f 231 238 201
f 231 201 203
f 239 240 241
f 241 240 242
f 241 242 243
f 243 242 244
f 244 242 245
f 244 245 246
f 239 247 240
f 240 247 248
f 240 248 249
f 249 250 240
f 240 250 251
f 251 250 252
f 251 252 253
f 251 253 254
f 254 253 255
f 254 255 256
f 256 257 254
f 254 257 258
f 254 258 259
f 259 260 254
f 254 260 261
f 261 260 262
f 261 262 263
f 262 260 264
f 264 260 265
f 264 265 266
f 264 266 267
f 267 266 268
f 267 268 269
f 269 268 270
f 269 270 271
f 271 270 272
f 271 272 273
f 273 272 274
f 274 272 275
f 274 275 276
f 276 275 277
f 276 277 246
f 246 277 278
f 246 278 244
f 279 280 281
f 281 280 282
f 281 282 283
f 283 282 284
f 284 282 285
f 285 282 286
f 286 282 287
f 287 282 288
f 287 288 289
f 289 288 290
f 290 288 261
f 290 261 291
f 291 261 292
f 292 261 293
f 293 261 294
f 294 261 263
f 279 245 280
f 280 245 242
f 295 296 297
f 297 296 298
f 297 298 299
f 299 300 297
f 297 300 301
f 297 301 302
f 297 302 303
f 303 302 304
f 303 304 305
f 303 305 306
f 306 305 307
f 306 307 308
f 308 309 306
f 306 309 310
f 306 310 311
f 306 311 312
f 312 311 313
f 312 313 314
f 315 316 314
f 314 316 317
f 314 317 318
f 318 317 319
f 318 319 320
f 315 321 316
f 316 321 322
f 322 321 323
f 322 323 324
f 324 323 325
f 324 325 326
f 326 325 327
f 327 325 328
f 327 328 329
f 329 328 330
f 329 330 331
f 331 330 332
f 331 332 333
f 333 332 334
f 333 334 295
f 335 336 337
f 337 336 338
f 337 338 295
f 295 338 333
f 318 320 339
f 339 320 340
f 339 340 341
f 341 342 339
f 339 342 343
f 339 343 344
f 339 344 345
f 345 344 346
f 345 346 347
f 345 347 337
f 337 347 348
f 337 348 349
f 349 350 337
f 337 350 335
f 351 212 352
f 352 212 210
f 352 210 353
f 353 210 354
f 354 210 355
f 355 210 356
f 356 210 357
f 357 210 358
f 358 210 359
f 359 210 360
f 359 360 361
f 361 360 362
f 362 360 363
f 363 360 364
f 364 360 365
f 364 365 366
f 366 365 367
f 367 365 368
f 367 368 369
f 369 368 370
f 369 370 371
f 371 370 372
f 371 372 373
f 373 372 374
f 373 374 375
f 375 374 376
f 375 376 377
f 377 376 378
f 351 379 212
f 212 379 380
f 212 380 381
f 381 382 212
f 212 382 383
f 212 383 384
f 384 383 385
f 384 385 386
f 386 387 384
f 384 387 388
f 384 388 389
f 389 388 390
f 389 390 391
f 391 390 392
f 391 392 393
f 393 392 394
f 393 394 395
f 395 394 396
f 395 396 397
f 397 396 398
f 397 398 399
f 399 398 400
f 399 400 401
f 401 400 402
f 390 388 403
f 403 388 404
f 403 404 405
f 405 406 403
f 403 406 407
f 403 407 408
f 403 408 339
f 339 408 318
f 318 312 314
f 312 409 306
f 306 409 410
f 410 409 411
f 410 411 412
f 412 413 410
f 410 413 414
f 410 414 415
f 416 417 415
f 415 417 418
f 415 418 419
f 416 420 417
f 417 420 421
f 417 421 422
f 422 423 417
f 417 423 424
f 417 424 425
f 425 426 417
f 417 426 427
f 417 427 428
f 428 429 417
f 417 429 430
f 430 429 431
f 430 431 432
f 432 433 430
f 430 433 434
f 430 434 435
f 435 436 430
f 430 436 437
f 430 437 438
f 438 439 430
f 430 439 440
f 430 440 441
f 441 440 442
f 442 440 443
f 443 440 444
f 444 440 445
f 445 440 446
f 445 446 447
f 447 448 445
f 445 448 449
f 445 449 450
f 445 450 240
f 240 450 242
f 280 451 282
f 282 451 452
f 452 451 453
f 452 453 454
f 454 455 452
f 452 455 456
f 452 456 364
f 366 452 364
f 457 458 288
f 288 458 459
f 288 459 460
f 460 461 288
f 288 461 261
f 254 462 251
f 251 462 463
f 251 463 464
f 464 465 251
f 251 465 466
f 441 467 430
f 430 467 468
f 430 468 469
f 470 471 417
f 417 471 472
f 417 472 418
f 419 473 415
f 415 473 474
f 415 474 410
f 475 476 303
f 303 476 477
f 303 477 478
f 478 479 303
f 303 479 297
f 297 337 295
f 337 480 345
f 345 480 481
f 345 481 482
f 482 483 345
f 345 483 484
f 215 485 210
f 210 485 486
f 210 486 360
f 485 215 487
f 487 215 209
f 487 209 488
f 488 209 208
f 488 208 489
f 489 208 207
f 489 207 490
f 490 207 206
f 490 206 491
f 491 206 205
f 491 205 492
f 492 205 204
f 492 204 202
f 202 493 492
f 492 493 494
f 492 494 491
f 491 494 495
f 491 495 490
f 490 495 496
f 490 496 489
f 489 496 497
f 489 497 488
f 488 497 498
f 488 498 487
f 487 498 499
f 487 499 485
f 485 499 500
f 485 500 486
f 486 500 501
f 501 500 502
f 502 500 503
f 503 500 504
f 504 500 505
f 505 500 499
f 505 499 506
f 506 499 507
f 507 499 498
f 507 498 508
f 508 498 497
f 508 497 509
f 509 497 510
f 510 497 496
f 510 496 511
f 511 496 495
f 511 495 512
f 512 495 513
f 513 495 494
f 513 494 514
f 514 494 493
f 202 201 493
f 493 201 515
f 238 516 201
f 201 516 517
f 201 517 518
f 518 517 519
f 519 517 520
f 519 520 521
f 521 520 522
f 522 520 523
f 522 523 524
f 524 523 525
f 524 525 526
f 526 525 527
f 527 525 528
f 527 528 529
f 529 528 530
f 529 530 531
f 531 530 532
f 532 530 533
f 532 533 534
f 534 533 535
f 535 533 536
f 536 533 537
f 536 537 232
f 232 537 233
f 233 537 538
f 233 538 234
f 234 538 539
f 234 539 235
f 235 539 540
f 235 540 236
f 236 540 541
f 236 541 237
f 237 541 542
f 237 542 238
f 238 542 516
f 232 179 536
f 536 179 543
f 543 179 544
f 544 179 72
f 518 515 201
f 520 517 516
f 520 516 542
f 523 520 542
f 523 542 541
f 525 523 541
f 525 541 540
f 528 525 540
f 528 540 539
f 530 528 539
f 530 539 538
f 533 530 538
f 533 538 537
f 211 223 545
f 545 223 546
f 17 231 41
f 41 231 547
f 41 547 33
f 33 547 18
f 18 547 546
f 18 546 548
f 548 546 549
f 549 546 223
f 549 223 17
f 17 223 231
f 549 17 550
f 550 17 18
f 550 18 551
f 551 18 548
f 63 552 61
f 61 552 553
f 61 553 554
f 554 553 555
f 555 553 556
f 555 556 557
f 557 556 558
f 557 558 559
f 559 558 560
f 560 558 548
f 548 558 561
f 548 561 562
f 562 561 563
f 562 563 564
f 564 563 565
f 565 563 566
f 565 566 567
f 567 566 568
f 567 568 569
f 569 568 63
f 63 568 552
f 562 551 548
f 556 553 552
f 552 568 570
f 570 568 566
f 570 566 561
f 561 566 563
f 558 556 570
f 570 556 552
f 558 570 561
f 63 71 569
f 569 71 571
f 569 571 567
f 567 571 572
f 567 572 565
f 565 572 573
f 565 573 564
f 564 573 574
f 564 574 562
f 562 574 575
f 562 575 551
f 551 575 550
f 66 576 71
f 71 576 577
f 71 577 571
f 571 577 572
f 572 577 578
f 572 578 573
f 573 578 579
f 573 579 574
f 574 579 575
f 575 579 550
f 550 579 580
f 550 580 581
f 581 580 582
f 581 582 583
f 583 582 584
f 584 582 585
f 584 585 586
f 586 585 587
f 586 587 588
f 588 587 66
f 66 587 576
f 581 549 550
f 578 577 576
f 576 587 589
f 589 587 585
f 589 585 580
f 580 585 582
f 579 578 589
f 589 578 576
f 579 589 580
f 548 549 560
f 560 549 581
f 560 581 559
f 559 581 583
f 559 583 557
f 557 583 584
f 557 584 555
f 555 584 586
f 555 586 554
f 554 586 588
f 554 588 61
f 61 588 66
f 230 590 70
f 70 590 591
f 70 591 67
f 590 230 592
f 592 230 229
f 592 229 593
f 593 229 228
f 593 228 594
f 594 228 227
f 594 227 595
f 595 227 226
f 595 226 596
f 596 226 225
f 596 225 597
f 597 225 224
f 597 224 222
f 222 598 597
f 597 598 599
f 597 599 596
f 596 599 600
f 596 600 595
f 595 600 601
f 595 601 594
f 594 601 602
f 594 602 593
f 593 602 603
f 593 603 592
f 592 603 604
f 592 604 590
f 590 604 605
f 590 605 591
f 591 605 606
f 606 605 607
f 607 605 608
f 608 605 609
f 609 605 610
f 610 605 604
f 610 604 611
f 611 604 612
f 612 604 603
f 612 603 613
f 613 603 602
f 613 602 614
f 614 602 615
f 615 602 601
f 615 601 616
f 616 601 600
f 616 600 617
f 617 600 618
f 618 600 599
f 618 599 619
f 619 599 598
f 222 221 598
f 598 221 620
f 220 621 221
f 221 621 622
f 221 622 623
f 623 622 624
f 624 622 625
f 624 625 626
f 626 625 627
f 627 625 628
f 627 628 629
f 629 628 630
f 629 630 631
f 631 630 632
f 632 630 633
f 632 633 634
f 634 633 635
f 634 635 636
f 636 635 637
f 637 635 638
f 637 638 639
f 639 638 640
f 640 638 641
f 641 638 642
f 641 642 214
f 214 642 213
f 213 642 643
f 213 643 216
f 216 643 644
f 216 644 217
f 217 644 645
f 217 645 218
f 218 645 646
f 218 646 219
f 219 646 647
f 219 647 220
f 220 647 621
f 214 212 641
f 641 212 648
f 648 212 649
f 649 212 384
f 623 620 221
f 625 622 621
f 625 621 647
f 628 625 647
f 628 647 646
f 630 628 646
f 630 646 645
f 633 630 645
f 633 645 644
f 635 633 644
f 635 644 643
f 638 635 643
f 638 643 642
f 231 203 547
f 547 203 650
f 203 211 650
f 650 211 545
f 651 239 652
f 652 239 241
f 652 241 653
f 653 241 243
f 653 243 654
f 654 243 244
f 654 244 655
f 655 244 278
f 655 278 656
f 656 278 277
f 656 277 657
f 657 277 275
f 657 275 658
f 658 275 272
f 658 272 659
f 659 272 270
f 659 270 660
f 660 270 268
f 660 268 661
f 661 268 266
f 661 266 662
f 662 266 265
f 662 265 663
f 663 265 260
f 663 260 664
f 664 260 259
f 664 259 665
f 665 259 258
f 665 258 666
f 666 258 257
f 666 257 667
f 667 257 256
f 667 256 668
f 668 256 255
f 668 255 669
f 669 255 253
f 669 253 670
f 670 253 252
f 670 252 671
f 671 252 250
f 671 250 672
f 672 250 249
f 672 249 673
f 673 249 248
f 673 248 674
f 674 248 247
f 674 247 651
f 651 247 239
f 675 279 676
f 676 279 281
f 676 281 677
f 677 281 283
f 677 283 678
f 678 283 284
f 678 284 679
f 679 284 285
f 679 285 680
f 680 285 286
f 680 286 681
f 681 286 287
f 681 287 682
f 682 287 289
f 682 289 683
f 683 289 290
f 683 290 684
f 684 290 291
f 684 291 685
f 685 291 292
f 685 292 686
f 686 292 293
f 686 293 687
f 687 293 294
f 687 294 688
f 688 294 263
f 688 263 689
f 689 263 262
f 689 262 690
f 690 262 264
f 690 264 691
f 691 264 267
f 691 267 692
f 692 267 269
f 692 269 693
f 693 269 271
f 693 271 694
f 694 271 273
f 694 273 695
f 695 273 274
f 695 274 696
f 696 274 276
f 696 276 697
f 697 276 246
f 697 246 698
f 698 246 245
f 698 245 675
f 675 245 279
f 699 298 700
f 700 298 296
f 700 296 701
f 701 296 295
f 701 295 702
f 702 295 334
f 702 334 703
f 703 334 332
f 703 332 704
f 704 332 330
f 704 330 705
f 705 330 328
f 705 328 706
f 706 328 325
f 706 325 707
f 707 325 323
f 707 323 708
f 708 323 321
f 708 321 709
f 709 321 315
f 709 315 710
f 710 315 314
f 710 314 711
f 711 314 313
f 711 313 712
f 712 313 311
f 712 311 713
f 713 311 310
f 713 310 714
f 714 310 309
f 714 309 715
f 715 309 308
f 715 308 716
f 716 308 307
f 716 307 717
f 717 307 305
f 717 305 718
f 718 305 304
f 718 304 719
f 719 304 302
f 719 302 720
f 720 302 301
f 720 301 721
f 721 301 300
f 721 300 722
f 722 300 299
f 722 299 699
f 699 299 298
f 723 338 724
f 724 338 336
f 724 336 725
f 725 336 335
f 725 335 726
f 726 335 350
f 726 350 727
f 727 350 349
f 727 349 728
f 728 349 348
f 728 348 729
f 729 348 347
f 729 347 730
f 730 347 346
f 730 346 731
f 731 346 344
f 731 344 732
f 732 344 343
f 732 343 733
f 733 343 342
f 733 342 734
f 734 342 341
f 734 341 735
f 735 341 340
f 735 340 736
f 736 340 320
f 736 320 737
f 737 320 319
f 737 319 738
f 738 319 317
f 738 317 739
f 739 317 316
f 739 316 740
f 740 316 322
f 740 322 741
f 741 322 324
f 741 324 742
f 742 324 326
f 742 326 743
f 743 326 327
f 743 327 744
f 744 327 329
f 744 329 745
f 745 329 331
f 745 331 746
f 746 331 333
f 746 333 723
f 723 333 338
f 254 747 462
f 462 747 748
f 462 748 463
f 463 748 749
f 463 749 464
f 464 749 750
f 464 750 465
f 465 750 751
f 465 751 466
f 466 751 752
f 466 752 251
f 251 752 753
f 254 261 747
f 747 261 754
f 288 755 457
f 457 755 756
f 457 756 458
f 458 756 757
f 458 757 459
f 459 757 758
f 459 758 460
f 460 758 759
f 460 759 461
f 461 759 760
f 461 760 261
f 261 760 754
f 288 282 755
f 755 282 761
f 337 762 480
f 480 762 763
f 480 763 481
f 481 763 764
f 481 764 482
f 482 764 765
f 482 765 483
f 483 765 766
f 483 766 484
f 484 766 767
f 484 767 345
f 345 767 768
f 337 297 762
f 762 297 769
f 303 770 475
f 475 770 771
f 475 771 476
f 476 771 772
f 476 772 477
f 477 772 773
f 477 773 478
f 478 773 774
f 478 774 479
f 479 774 775
f 479 775 297
f 297 775 769
f 753 776 251
f 251 776 240
f 651 652 776
f 776 652 653
f 776 653 675
f 675 653 654
f 675 654 698
f 698 654 697
f 697 654 655
f 697 655 696
f 696 655 656
f 696 656 695
f 695 656 657
f 695 657 694
f 694 657 658
f 694 658 659
f 694 659 693
f 693 659 660
f 693 660 692
f 692 660 661
f 692 661 691
f 691 661 662
f 691 662 690
f 690 662 689
f 689 662 663
f 689 663 747
f 747 663 664
f 747 664 665
f 666 753 665
f 665 753 752
f 665 752 751
f 666 667 753
f 753 667 668
f 753 668 669
f 669 670 753
f 753 670 671
f 753 671 776
f 776 671 672
f 776 672 673
f 673 674 776
f 776 674 651
f 675 676 761
f 761 676 677
f 761 677 678
f 678 679 761
f 761 679 680
f 761 680 681
f 761 681 755
f 755 681 682
f 755 682 683
f 683 684 755
f 755 684 685
f 755 685 686
f 686 687 755
f 755 687 756
f 756 687 757
f 757 687 754
f 757 754 758
f 758 754 759
f 759 754 760
f 687 688 754
f 754 688 689
f 754 689 747
f 776 675 761
f 665 751 747
f 747 751 750
f 747 750 749
f 749 748 747
f 303 306 770
f 770 306 777
f 768 778 345
f 345 778 339
f 699 700 769
f 769 700 701
f 769 701 723
f 723 701 702
f 723 702 746
f 746 702 745
f 745 702 703
f 745 703 744
f 744 703 704
f 744 704 743
f 743 704 705
f 743 705 742
f 742 705 706
f 742 706 707
f 742 707 741
f 741 707 708
f 741 708 740
f 740 708 709
f 740 709 739
f 739 709 710
f 739 710 738
f 738 710 737
f 737 710 711
f 737 711 777
f 777 711 712
f 777 712 713
f 713 714 777
f 777 714 715
f 777 715 716
f 716 717 777
f 777 717 770
f 770 717 718
f 770 718 719
f 719 720 770
f 770 720 721
f 770 721 722
f 722 699 770
f 770 699 771
f 771 699 772
f 772 699 769
f 772 769 773
f 773 769 774
f 774 769 775
f 723 724 762
f 762 724 725
f 762 725 766
f 766 725 767
f 767 725 768
f 768 725 726
f 768 726 727
f 727 728 768
f 768 728 729
f 768 729 730
f 730 731 768
f 768 731 778
f 778 731 732
f 778 732 733
f 733 734 778
f 778 734 735
f 778 735 736
f 736 737 778
f 778 737 777
f 769 723 762
f 766 765 762
f 762 765 764
f 762 764 763
f 339 778 403
f 403 778 113
f 113 778 777
f 113 777 115
f 115 777 410
f 410 777 306
f 129 779 170
f 170 779 780
f 170 780 171
f 171 780 781
f 171 781 172
f 172 781 782
f 172 782 173
f 173 782 783
f 173 783 174
f 174 783 784
f 174 784 68
f 68 784 785
f 68 785 69
f 69 785 786
f 69 786 175
f 175 786 787
f 787 788 175
f 175 788 62
f 62 788 64
f 64 788 789
f 64 789 65
f 65 789 790
f 65 790 176
f 176 790 791
f 176 791 177
f 177 791 792
f 177 792 178
f 178 792 793
f 178 793 73
f 73 793 794
f 73 794 74
f 74 794 795
f 74 795 76
f 76 795 796
f 796 797 76
f 76 797 78
f 78 797 87
f 87 797 798
f 87 798 154
f 154 798 799
f 154 799 155
f 155 799 800
f 155 800 156
f 156 800 801
f 156 801 157
f 157 801 802
f 157 802 158
f 158 802 803
f 158 803 159
f 159 803 804
f 159 804 160
f 160 804 805
f 805 806 160
f 160 806 162
f 162 806 163
f 163 806 807
f 163 807 164
f 164 807 808
f 164 808 165
f 165 808 809
f 165 809 166
f 166 809 810
f 166 810 167
f 167 810 811
f 167 811 168
f 168 811 812
f 168 812 169
f 169 812 813
f 169 813 120
f 120 813 814
f 129 120 779
f 779 120 814
f 79 815 77
f 77 815 816
f 77 816 75
f 75 816 817
f 75 817 97
f 97 817 818
f 97 818 98
f 98 818 819
f 98 819 99
f 99 819 820
f 99 820 100
f 100 820 821
f 100 821 101
f 101 821 822
f 101 822 102
f 102 822 823
f 102 823 103
f 103 823 824
f 103 824 104
f 104 824 825
f 104 825 105
f 105 825 826
f 105 826 106
f 106 826 827
f 106 827 108
f 108 827 828
f 108 828 109
f 109 828 829
f 109 829 110
f 110 829 830
f 110 830 111
f 111 830 831
f 111 831 86
f 86 831 832
f 86 832 85
f 85 832 833
f 85 833 84
f 84 833 834
f 84 834 83
f 83 834 835
f 83 835 82
f 82 835 836
f 82 836 81
f 81 836 837
f 81 837 80
f 80 837 838
f 80 838 79
f 79 838 815
f 116 839 114
f 114 839 840
f 114 840 112
f 112 840 841
f 112 841 152
f 152 841 842
f 152 842 153
f 153 842 843
f 153 843 137
f 137 843 844
f 137 844 136
f 136 844 845
f 136 845 135
f 135 845 846
f 135 846 134
f 134 846 847
f 134 847 133
f 133 847 848
f 133 848 132
f 132 848 849
f 132 849 131
f 131 849 850
f 131 850 130
f 130 850 851
f 130 851 128
f 128 851 852
f 128 852 127
f 127 852 853
f 127 853 126
f 126 853 854
f 126 854 125
f 125 854 855
f 125 855 124
f 124 855 856
f 124 856 123
f 123 856 857
f 123 857 122
f 122 857 858
f 122 858 121
f 121 858 859
f 121 859 119
f 119 859 860
f 119 860 118
f 118 860 861
f 118 861 117
f 117 861 862
f 117 862 116
f 116 862 839
f 115 410 863
f 863 410 474
f 863 474 864
f 864 474 473
f 864 473 865
f 865 473 419
f 865 419 866
f 866 419 418
f 866 418 867
f 867 418 472
f 867 472 868
f 868 472 471
f 868 471 869
f 869 471 470
f 869 470 417
f 417 161 869
f 869 161 186
f 869 186 868
f 868 186 185
f 868 185 867
f 867 185 184
f 867 184 866
f 866 184 183
f 866 183 865
f 865 183 182
f 865 182 864
f 864 182 181
f 864 181 863
f 863 181 180
f 863 180 115
f 384 389 649
f 649 389 648
f 648 389 391
f 648 391 641
f 641 391 640
f 640 391 393
f 640 393 639
f 639 393 395
f 639 395 637
f 637 395 636
f 636 395 397
f 636 397 634
f 634 397 632
f 632 397 399
f 632 399 631
f 631 399 629
f 629 399 401
f 629 401 627
f 627 401 626
f 626 401 624
f 624 401 402
f 624 402 623
f 623 402 620
f 620 402 870
f 620 870 598
f 598 870 150
f 598 150 619
f 619 150 618
f 618 150 151
f 618 151 617
f 617 151 616
f 616 151 615
f 615 151 149
f 615 149 614
f 614 149 613
f 613 149 147
f 613 147 612
f 612 147 611
f 611 147 145
f 611 145 610
f 610 145 609
f 609 145 143
f 609 143 608
f 608 143 141
f 608 141 607
f 607 141 606
f 606 141 139
f 606 139 591
f 591 139 67
f 870 402 871
f 871 402 400
f 871 400 872
f 872 400 398
f 872 398 873
f 873 398 396
f 873 396 874
f 874 396 394
f 874 394 875
f 875 394 392
f 875 392 876
f 876 392 390
f 876 390 403
f 403 113 876
f 876 113 138
f 876 138 875
f 875 138 140
f 875 140 874
f 874 140 142
f 874 142 873
f 873 142 144
f 873 144 872
f 872 144 146
f 872 146 871
f 871 146 148
f 871 148 870
f 870 148 150
f 89 430 877
f 877 430 469
f 877 469 878
f 878 469 468
f 878 468 879
f 879 468 467
f 879 467 880
f 880 467 441
f 880 441 881
f 881 441 442
f 881 442 882
f 882 442 443
f 882 443 883
f 883 443 444
f 883 444 445
f 445 88 883
f 883 88 90
f 883 90 882
f 882 90 91
f 882 91 881
f 881 91 92
f 881 92 880
f 880 92 93
f 880 93 879
f 879 93 94
f 879 94 878
f 878 94 95
f 878 95 877
f 877 95 96
f 877 96 89
f 282 452 761
f 761 452 107
f 761 107 88
f 761 88 776
f 776 88 445
f 776 445 240
f 107 452 884
f 884 452 366
f 884 366 885
f 885 366 367
f 885 367 886
f 886 367 369
f 886 369 887
f 887 369 371
f 887 371 888
f 888 371 373
f 888 373 889
f 889 373 375
f 889 375 890
f 890 375 377
f 890 377 493
f 493 377 514
f 514 377 378
f 514 378 513
f 513 378 512
f 512 378 511
f 511 378 510
f 510 378 376
f 510 376 509
f 509 376 508
f 508 376 374
f 508 374 507
f 507 374 506
f 506 374 372
f 506 372 505
f 505 372 370
f 505 370 504
f 504 370 503
f 503 370 368
f 503 368 502
f 502 368 501
f 501 368 365
f 501 365 486
f 486 365 360
f 493 515 890
f 890 515 200
f 890 200 889
f 889 200 198
f 889 198 888
f 888 198 196
f 888 196 887
f 887 196 194
f 887 194 886
f 886 194 192
f 886 192 885
f 885 192 190
f 885 190 884
f 884 190 188
f 884 188 107
f 515 518 200
f 200 518 199
f 199 518 519
f 199 519 521
f 521 522 199
f 199 522 524
f 199 524 197
f 197 524 526
f 197 526 527
f 197 527 195
f 195 527 529
f 195 529 531
f 195 531 193
f 193 531 532
f 193 532 191
f 191 532 534
f 191 534 535
f 191 535 189
f 189 535 536
f 189 536 543
f 189 543 187
f 187 543 544
f 187 544 72
f 650 545 547
f 547 545 546
f 891 892 893
f 893 892 894
f 894 892 895
f 895 892 896
f 896 892 897
f 897 892 898
f 898 892 899
f 899 892 900
f 900 892 901
f 901 892 902
f 902 892 903
f 903 892 904
f 904 892 905
f 905 892 906
f 906 892 907
f 907 892 908
f 909 910 911
f 911 910 912
f 911 912 913
f 913 914 911
f 911 914 915
f 911 915 916
f 916 917 911
f 911 917 918
f 911 918 919
f 919 920 911
f 911 920 921
f 911 921 922
f 922 923 911
f 911 923 924
f 911 924 925
f 925 926 911
f 927 928 929
f 929 928 930
f 929 930 931
f 931 932 929
f 929 932 933
f 929 933 934
f 934 935 929
f 929 935 936
f 929 936 937
f 937 938 929
f 929 938 939
f 929 939 940
f 940 941 929
f 929 941 942
f 929 942 943
f 943 944 929
f 945 946 947
f 947 946 948
f 948 946 949
f 949 946 950
f 950 946 951
f 951 946 952
f 952 946 953
f 953 946 954
f 954 946 955
f 955 946 956
f 956 946 957
f 957 946 958
f 958 946 959
f 959 946 960
f 960 946 961
f 961 946 962
f 945 947 280
f 280 947 451
f 451 947 948
f 451 948 453
f 453 948 949
f 453 949 454
f 454 949 950
f 454 950 455
f 455 950 951
f 455 951 456
f 456 951 952
f 456 952 953
f 456 953 364
f 364 953 954
f 364 954 363
f 363 954 955
f 363 955 362
f 362 955 956
f 362 956 361
f 361 956 957
f 361 957 958
f 361 958 359
f 359 958 959
f 359 959 358
f 358 959 960
f 358 960 357
f 357 960 961
f 357 961 356
f 356 961 962
f 356 962 355
f 355 962 963
f 355 963 964
f 355 964 354
f 354 964 965
f 354 965 353
f 353 965 966
f 967 968 429
f 429 968 431
f 431 968 969
f 431 969 432
f 432 969 970
f 432 970 944
f 432 944 433
f 433 944 943
f 433 943 434
f 434 943 942
f 434 942 435
f 435 942 941
f 435 941 436
f 436 941 940
f 436 940 437
f 437 940 939
f 437 939 938
f 437 938 438
f 438 938 937
f 438 937 439
f 439 937 936
f 439 936 440
f 440 936 935
f 440 935 446
f 446 935 934
f 446 934 933
f 446 933 447
f 447 933 932
f 447 932 448
f 448 932 931
f 448 931 449
f 449 931 930
f 449 930 450
f 450 930 928
f 450 928 242
f 242 928 927
f 926 925 312
f 312 925 409
f 409 925 924
f 409 924 411
f 411 924 923
f 411 923 412
f 412 923 922
f 412 922 413
f 413 922 921
f 413 921 414
f 414 921 920
f 414 920 919
f 414 919 415
f 415 919 918
f 415 918 416
f 416 918 917
f 416 917 420
f 420 917 916
f 420 916 421
f 421 916 915
f 421 915 914
f 421 914 422
f 422 914 913
f 422 913 423
f 423 913 912
f 423 912 424
f 424 912 910
f 424 910 425
f 425 910 909
f 425 909 426
f 426 909 971
f 426 971 972
f 426 972 427
f 427 972 973
f 427 973 428
f 428 973 974
f 975 976 352
f 352 976 351
f 351 976 977
f 351 977 379
f 379 977 978
f 379 978 891
f 379 891 380
f 380 891 893
f 380 893 381
f 381 893 894
f 381 894 382
f 382 894 895
f 382 895 383
f 383 895 896
f 383 896 385
f 385 896 897
f 385 897 898
f 385 898 386
f 386 898 899
f 386 899 387
f 387 899 900
f 387 900 388
f 388 900 901
f 388 901 404
f 404 901 902
f 404 902 903
f 404 903 405
f 405 903 904
f 405 904 406
f 406 904 905
f 406 905 407
f 407 905 906
f 407 906 408
f 408 906 907
f 408 907 318
f 318 907 908
f 974 973 909
f 909 973 971
f 971 973 972
f 967 944 968
f 968 944 970
f 968 970 969
f 975 891 976
f 976 891 978
f 976 978 977
f 892 979 908
f 908 979 980
f 908 980 926
f 926 980 911
f 312 318 926
f 926 318 908
f 979 966 981
f 981 966 962
f 981 962 946
f 892 891 979
f 979 891 975
f 979 975 966
f 966 975 353
f 353 975 352
f 929 982 927
f 927 982 981
f 927 981 945
f 945 981 946
f 280 242 945
f 945 242 927
f 982 974 980
f 980 974 909
f 980 909 911
f 929 944 982
f 982 944 967
f 982 967 974
f 974 967 428
f 428 967 429
f 966 965 962
f 962 965 963
f 963 965 964
f 417 430 161
f 161 430 89
f 815 797 816
f 816 797 796
f 816 796 817
f 817 796 818
f 818 796 819
f 819 796 820
f 820 796 821
f 821 796 822
f 822 796 823
f 823 796 824
f 824 796 981
f 824 981 825
f 825 981 826
f 826 981 827
f 827 981 828
f 828 981 982
f 828 982 829
f 829 982 830
f 830 982 831
f 831 982 832
f 832 982 797
f 832 797 833
f 833 797 834
f 834 797 835
f 835 797 836
f 836 797 837
f 837 797 838
f 838 797 815
f 839 980 840
f 840 980 979
f 840 979 841
f 841 979 842
f 842 979 843
f 843 979 844
f 844 979 779
f 844 779 845
f 845 779 846
f 846 779 847
f 847 779 848
f 848 779 849
f 849 779 850
f 850 779 851
f 851 779 852
f 852 779 814
f 852 814 853
f 853 814 854
f 854 814 855
f 855 814 856
f 856 814 857
f 857 814 858
f 858 814 859
f 859 814 860
f 860 814 980
f 860 980 861
f 861 980 862
f 862 980 839
f 796 795 981
f 981 795 794
f 981 794 793
f 793 792 981
f 981 792 791
f 981 791 790
f 790 789 981
f 981 789 788
f 981 788 979
f 979 788 787
f 979 787 786
f 786 785 979
f 979 785 784
f 979 784 783
f 783 782 979
f 979 782 781
f 979 781 780
f 780 779 979
f 814 813 980
f 980 813 812
f 980 812 811
f 811 810 980
f 980 810 809
f 980 809 808
f 808 807 980
f 980 807 806
f 980 806 805
f 980 805 982
f 982 805 804
f 982 804 803
f 803 802 982
f 982 802 801
f 982 801 800
f 800 799 982
f 982 799 798
f 982 798 797
# 982 vertices
# 0 texture params
# 0 normals
# 1996 facets

# 1 groups
